<?xml version="1.0" encoding="UTF-8" standalone="no"?><!DOCTYPE svg PUBLIC "-//W3C//DTD SVG 1.1//EN" "http://www.w3.org/Graphics/SVG/1.1/DTD/svg11.dtd"><svg width="100%" height="100%" viewBox="0 0 500 500" version="1.1" xmlns="http://www.w3.org/2000/svg" xmlns:xlink="http://www.w3.org/1999/xlink" xml:space="preserve" xmlns:serif="http://www.serif.com/" style="fill-rule:evenodd;clip-rule:evenodd;stroke-linejoin:round;stroke-miterlimit:2;"><path d="M500,125c-0,-68.989 -56.011,-125 -125,-125l-250,-0c-68.989,-0 -125,56.011 -125,125l0,250c0,68.989 56.011,125 125,125l250,-0c68.989,-0 125,-56.011 125,-125l-0,-250Z" style="fill:#7f2714;"/><clipPath id="_clip1"><path d="M500,125c0,-68.989 -56.011,-125 -125,-125l-250,0c-68.989,0 -125,56.011 -125,125l0,250c0,68.989 56.011,125 125,125l250,0c68.989,0 125,-56.011 125,-125l0,-250Z"/></clipPath><g clip-path="url(#_clip1)"><g transform="matrix(763.249,0,0,763.249,559.498,515.611)"></g><text x="-41.943px" y="515.611px" style="font-family:'SairaCondensed-Black', 'Saira Condensed';font-weight:900;font-stretch:condensed;font-size:763.249px;fill:#ff9f07;">12</text></g></svg>